<svg
  width="32"
  height="32"
  viewBox="0 0 49 49"
  fill="currentColor"
  xmlns="http://www.w3.org/2000/svg">
  <title>Добавить студента</title>
  <g opacity="1">
    <path
      d="M3.0625 42.875C3.0625 42.875 0 42.875 0 39.8125C0 36.75 3.0625 27.5625 18.375 27.5625C33.6875 27.5625 36.75 36.75 36.75 39.8125C36.75 42.875 33.6875 42.875 33.6875 42.875H3.0625ZM18.375 24.5C20.8117 24.5 23.1486 23.532 24.8715 21.809C26.5945 20.0861 27.5625 17.7492 27.5625 15.3125C27.5625 12.8758 26.5945 10.5389 24.8715 8.81596C23.1486 7.09297 20.8117 6.125 18.375 6.125C15.9383 6.125 13.6014 7.09297 11.8785 8.81596C10.1555 10.5389 9.1875 12.8758 9.1875 15.3125C9.1875 17.7492 10.1555 20.0861 11.8785 21.809C13.6014 23.532 15.9383 24.5 18.375 24.5Z"
      fill="currentColor" />
    <path
      fill-rule="evenodd"
      clip-rule="evenodd"
      d="M41.3438 15.3125C41.7499 15.3125 42.1393 15.4738 42.4265 15.761C42.7137 16.0482 42.875 16.4376 42.875 16.8438V21.4375H47.4688C47.8749 21.4375 48.2643 21.5988 48.5515 21.886C48.8387 22.1732 49 22.5626 49 22.9688C49 23.3749 48.8387 23.7643 48.5515 24.0515C48.2643 24.3387 47.8749 24.5 47.4688 24.5H42.875V29.0938C42.875 29.4999 42.7137 29.8893 42.4265 30.1765C42.1393 30.4637 41.7499 30.625 41.3438 30.625C40.9376 30.625 40.5482 30.4637 40.261 30.1765C39.9738 29.8893 39.8125 29.4999 39.8125 29.0938V24.5H35.2188C34.8126 24.5 34.4232 24.3387 34.136 24.0515C33.8488 23.7643 33.6875 23.3749 33.6875 22.9688C33.6875 22.5626 33.8488 22.1732 34.136 21.886C34.4232 21.5988 34.8126 21.4375 35.2188 21.4375H39.8125V16.8438C39.8125 16.4376 39.9738 16.0482 40.261 15.761C40.5482 15.4738 40.9376 15.3125 41.3438 15.3125Z"
      fill="currentColor" />
  </g>
</svg>
