<svg
  width="50"
  height="50"
  viewBox="0 0 79 79"
  fill="none"
  xmlns="http://www.w3.org/2000/svg">
  <path
    fill-rule="evenodd"
    clip-rule="evenodd"
    d="M76.3486 9.59811L70.2407 2.18139C69.3682 0.872555 67.6231 0 65.4417 0H13.0883C10.9069 0 9.16183 0.872555 7.853 2.18139L2.18139 9.59811C0.872555 11.3432 0 13.0883 0 15.2697V69.8044C0 74.6035 3.9265 78.53 8.72556 78.53H69.8044C74.6035 78.53 78.53 74.6035 78.53 69.8044V15.2697C78.53 13.0883 77.6574 11.3432 76.3486 9.59811ZM39.265 63.2603L15.2697 39.265H30.5394V30.5394H47.9906V39.265H63.2603L39.265 63.2603ZM9.16183 8.72556L12.6521 4.36278H65.0054L68.9319 8.72556H9.16183Z"
    fill="currentColor" />
</svg>
