<svg
  width="50"
  height="50"
  viewBox="0 0 81 81"
  fill="none"
  xmlns="http://www.w3.org/2000/svg">
  <path
    d="M40.28 0C18.0337 0 0 18.0337 0 40.28C0 62.5263 18.0337 80.56 40.28 80.56C62.5263 80.56 80.56 62.5263 80.56 40.28C80.56 18.0337 62.5263 0 40.28 0ZM61.7694 37.3228V42.4132V43.2171C61.6855 44.3735 61.0393 46.8255 57.0499 46.8255H41.1746C38.2475 46.8255 38.3516 44.6286 38.3516 44.6286V44.501C38.3516 42.7606 40.0954 42.4568 40.9715 42.4132H54.2504C56.6085 42.4132 57.1019 41.2652 57.1875 40.5385V39.6338C57.1875 37.7289 55.7677 37.3748 54.9721 37.3228H38.3533H37.8666C35.1695 37.3228 34.3202 35.8693 34.0567 34.7952L34.0534 34.7969C34.0534 34.7969 33.7882 33.2931 32.3029 34.5166L26.5529 39.2529C26.5529 39.2529 26.5378 39.268 26.5328 39.2696L26.4489 39.3385C26.0393 39.6892 24.6128 41.1074 26.5496 42.4719L31.2439 45.7765L31.2774 45.8L33.9409 47.6747V47.6193L36.1563 49.1332C38.3701 50.6504 38.3533 53.1545 38.3533 53.1545V53.7285C38.3533 53.7285 38.0831 55.964 35.9063 54.4367L20.0779 43.296C20.0779 43.296 20.0779 43.2943 20.0762 43.2943C17.1878 41.2618 20.0695 38.8165 20.0762 38.8098L35.0201 26.4925C38.3247 23.7702 38.3516 28.0517 38.3516 28.0517V30.6111C38.4825 31.5711 39.1757 33.0799 42.2554 33.0799H57.1859H58.6074C58.6074 33.0799 61.7677 32.9524 61.7677 36.2923L61.7694 37.3228Z"
    fill="currentColor" />
</svg>
