<svg
  width="50"
  height="50"
  viewBox="0 0 79 79"
  fill="none"
  xmlns="http://www.w3.org/2000/svg">
  <path
    fill-rule="evenodd"
    clip-rule="evenodd"
    d="M50.5828 23.8673C50.0624 23.873 49.5656 24.0851 49.2015 24.457C48.8374 24.8289 48.6358 25.3301 48.6411 25.8505L48.503 61.1108C48.4985 61.3708 48.5456 61.6292 48.6418 61.8708C48.7379 62.1125 48.8811 62.3327 49.063 62.5185C49.245 62.7044 49.462 62.8523 49.7016 62.9536C49.9411 63.0548 50.1984 63.1075 50.4585 63.1085C50.7186 63.1095 50.9763 63.0589 51.2166 62.9595C51.457 62.8601 51.6752 62.7139 51.8585 62.5294C52.0419 62.345 52.1868 62.126 52.2848 61.8851C52.3829 61.6441 52.432 61.3862 52.4295 61.1261L52.5676 25.8658C52.5723 25.6032 52.5242 25.3424 52.4263 25.0987C52.3284 24.855 52.1826 24.6334 51.9976 24.4471C51.8125 24.2607 51.592 24.1134 51.349 24.0138C51.106 23.9142 50.8454 23.8644 50.5828 23.8673ZM39.3125 23.8673C38.7921 23.873 38.2953 24.0851 37.9312 24.457C37.5671 24.8289 37.3655 25.3301 37.3708 25.8505L37.2327 61.1108C37.2282 61.3708 37.2753 61.6292 37.3715 61.8708C37.4676 62.1125 37.6108 62.3327 37.7927 62.5185C37.9747 62.7044 38.1917 62.8523 38.4313 62.9536C38.6708 63.0548 38.9281 63.1075 39.1882 63.1085C39.4483 63.1095 39.706 63.0589 39.9463 62.9595C40.1867 62.8601 40.4049 62.7139 40.5882 62.5294C40.7716 62.345 40.9165 62.126 41.0145 61.8851C41.1126 61.6441 41.1617 61.3862 41.1592 61.1261L41.2973 25.8658C41.302 25.6032 41.254 25.3424 41.1561 25.0987C41.0582 24.855 40.9124 24.6334 40.7273 24.4471C40.5422 24.2607 40.3217 24.1134 40.0787 24.0138C39.8357 23.9142 39.5751 23.8644 39.3125 23.8673ZM28.415 23.8673C27.8946 23.873 27.3977 24.0851 27.0336 24.457C26.6695 24.8289 26.4679 25.3301 26.4732 25.8505L26.3352 61.1108C26.3306 61.3708 26.3778 61.6292 26.4739 61.8708C26.57 62.1125 26.7132 62.3327 26.8952 62.5185C27.0771 62.7044 27.2942 62.8523 27.5337 62.9536C27.7733 63.0548 28.0306 63.1075 28.2906 63.1085C28.5507 63.1095 28.8084 63.0589 29.0488 62.9595C29.2891 62.8601 29.5073 62.7139 29.6907 62.5294C29.8741 62.345 30.019 62.126 30.117 61.8851C30.215 61.6441 30.2642 61.3862 30.2617 61.1261L30.3997 25.8658C30.4044 25.6032 30.3564 25.3424 30.2585 25.0987C30.1606 24.855 30.0148 24.6334 29.8297 24.4471C29.6447 24.2607 29.4241 24.1134 29.1811 24.0138C28.9381 23.9142 28.6776 23.8644 28.415 23.8673ZM15.706 0C7.00487 0 0 7.00487 0 15.706V62.824C0 71.5251 7.00487 78.53 15.706 78.53H62.824C71.5251 78.53 78.53 71.5251 78.53 62.824V15.706C78.53 7.00487 71.5251 0 62.824 0H15.706ZM34.1529 11.7197H44.3771C45.0632 11.7197 45.6164 12.2729 45.6164 12.959V15.3394H58.9619C59.7695 15.3394 60.419 15.989 60.419 16.7965V19.0849C60.419 19.8925 59.7695 20.542 58.9619 20.542H19.5681C18.7605 20.542 18.111 19.8925 18.111 19.0849V16.7965C18.111 15.989 18.7605 15.3394 19.5681 15.3394H32.9136V12.959C32.9136 12.2729 33.4668 11.7197 34.1529 11.7197ZM20.8012 22.1709H57.7288V60.5632C57.7288 64.024 54.9425 66.8103 51.4816 66.8103H27.0484C23.5875 66.8103 20.8012 64.024 20.8012 60.5632V22.1709Z"
    fill="currentColor" />
</svg>
