<svg
  width="17"
  height="17"
  viewBox="0 0 17 17"
  fill="none"
  xmlns="http://www.w3.org/2000/svg">
  <g opacity="1">
    <path
      d="M11.5497 9.04377C11.5355 9.03872 11.5209 9.03492 11.506 9.03243L11.5023 9.02957L11.4683 9.00645C11.4397 8.98918 11.41 8.97382 11.3794 8.96047C11.2966 8.92506 11.211 8.89666 11.1235 8.87555C10.5019 8.73429 9.92187 8.45 9.42945 8.04526C8.32435 7.05928 7.6167 5.70416 7.43909 4.23383C7.4017 4.02224 7.37519 3.80888 7.35965 3.59457L7.3453 3.43258L7.33807 3.35142L7.33443 3.31079L7.33347 3.30067C7.33165 3.27145 7.3266 3.24253 7.31843 3.21442C7.29913 3.14667 7.25997 3.08627 7.20599 3.04101C7.15202 2.99575 7.08571 2.96771 7.01564 2.96052C6.94557 2.95333 6.87495 2.96731 6.81291 3.00067C6.75086 3.03402 6.70025 3.08521 6.66759 3.14762C6.64249 3.19661 6.62793 3.25031 6.62486 3.30527L6.62129 3.34256C6.58764 3.34441 6.59127 3.34451 6.62129 3.34256L6.62097 3.34593L6.61322 3.42732L6.59775 3.59032C6.55935 4.02566 6.48656 4.45728 6.38005 4.88114C6.18203 5.70233 5.8262 6.47718 5.33237 7.16252C4.89402 7.75918 4.31571 8.23891 3.64834 8.55949L3.31058 8.69243C3.14677 8.75079 2.9204 8.79525 2.79813 8.84781L2.37411 8.99677L2.16792 9.06924C2.13307 9.08772 2.15142 9.0974 2.14065 9.11174L2.11786 9.18927L2.10686 9.22675C2.10519 9.24221 2.10447 9.25776 2.10469 9.27332C2.10394 9.28307 2.10532 9.29288 2.10875 9.30205L2.14953 9.43943C2.24144 9.5106 2.33796 9.57563 2.43844 9.63408C2.78719 9.67579 3.12943 9.76055 3.45733 9.88642L3.60639 9.94436C3.64803 9.9599 3.68834 9.9788 3.72691 10.0009L3.98244 10.1328C4.38184 10.3682 4.74381 10.662 5.05637 11.0043C5.79121 11.8668 6.28862 12.9058 6.49957 14.019C6.56199 14.3271 6.60796 14.6383 6.63727 14.9512L6.66065 15.1853L6.66357 15.2145C6.66518 15.2401 6.66929 15.2656 6.67582 15.2904C6.69236 15.3539 6.72842 15.4107 6.77893 15.4526C6.82944 15.4945 6.89184 15.5195 6.95733 15.5241C7.02282 15.5287 7.08808 15.5125 7.14391 15.478C7.19974 15.4435 7.24332 15.3923 7.26849 15.3317C7.28336 15.2956 7.29213 15.2574 7.29446 15.2185L7.29569 15.2039L7.30558 15.0874L7.34514 14.6247C7.41616 14.0448 7.54753 13.474 7.73713 12.9214C8.00378 12.1228 8.44825 11.3951 9.03704 10.7933C9.51946 10.3054 10.1122 9.94093 10.7653 9.73055C11.2058 9.58506 11.4619 9.57131 11.5065 9.52469C11.5332 9.50569 11.4834 9.42641 11.537 9.42741C11.5855 9.41787 11.6283 9.38979 11.6563 9.34916C11.6843 9.30854 11.6954 9.25857 11.6871 9.20991C11.6807 9.16552 11.6598 9.12448 11.6278 9.09311C11.6055 9.07134 11.5789 9.05452 11.5497 9.04377Z"
      fill="#AE1010" />
    <path
      d="M14.8214 4.63915C14.7959 4.59396 14.7542 4.56016 14.7047 4.54466C14.6433 4.53098 14.6848 4.53513 14.6696 4.52952L14.6572 4.51C14.6475 4.4967 14.6366 4.48441 14.6244 4.47334C14.5967 4.44829 14.5645 4.42854 14.5296 4.41508C14.4251 4.38644 14.3226 4.35077 14.2229 4.30829C13.9792 4.19114 13.7674 4.01696 13.6054 3.80052C13.5519 3.73062 13.5027 3.65749 13.4582 3.58155L13.3897 3.45949L13.3064 3.27953C13.2639 3.16826 13.229 3.05426 13.2019 2.93829C13.1706 2.80956 13.1333 2.71313 13.1067 2.54938C13.0778 2.39819 13.0487 2.24566 13.0193 2.0918C13.0127 2.04016 13.0028 2.04437 12.9938 2.03487L12.9662 2.01061L12.9107 1.96198L12.8568 1.91616L12.8278 1.90341L12.7744 1.88078L12.7497 1.87082L12.7435 1.86852C12.7396 1.86719 12.7201 1.86842 12.7253 1.86882L12.7128 1.87176C12.7055 1.8718 12.6627 1.88496 12.6204 1.89722C12.582 1.9213 12.5456 1.94819 12.5112 1.97766C12.4891 1.99247 12.469 2.01015 12.4515 2.03023L12.384 2.21776C12.3552 2.56484 12.2809 2.90664 12.163 3.23437C12.0947 3.39008 12.0846 3.40797 12.0538 3.46667L11.9653 3.61761C11.8505 3.80029 11.704 3.96097 11.5326 4.09204C11.5138 4.10795 11.4937 4.12224 11.4725 4.13475L11.3775 4.19752C11.2531 4.25607 11.123 4.30124 10.9891 4.33228C10.9237 4.34895 10.8594 4.36975 10.7965 4.39457L10.6284 4.4601C10.5409 4.50974 10.477 4.57086 10.4943 4.59723L10.4619 4.68669L10.4582 4.72407C10.4566 4.75191 10.458 4.77984 10.4624 4.80737L10.4913 4.88393L10.503 4.91412L10.5097 4.93153L10.5547 4.95973C10.6186 4.99936 10.6945 5.04638 10.7856 5.10289C10.9252 5.13396 11.0606 5.18039 11.23 5.2277C11.3049 5.249 11.3754 5.28351 11.4382 5.32961L11.5212 5.38288C11.65 5.47874 11.7664 5.59018 11.8678 5.71465C11.9262 5.78848 11.9798 5.86601 12.0282 5.94678C12.1026 6.06548 12.1642 6.19183 12.2117 6.32366C12.3594 6.69921 12.3987 7.42191 12.6023 7.50227C12.6146 7.52753 12.6339 7.54875 12.6579 7.5634C12.6819 7.57806 12.7096 7.58555 12.7376 7.58499C12.8148 7.58499 12.9509 7.62239 13.0532 7.13636C13.1438 6.70541 13.177 6.47707 13.2536 6.22839C13.3082 6.09759 13.3299 6.0604 13.3514 6.01217L13.4288 5.87693C13.5104 5.74114 13.6096 5.61674 13.7238 5.50696C14.0057 5.27685 14.3289 5.10267 14.6761 4.99377C14.6858 4.97762 14.6546 4.89472 14.6997 4.89874C14.7278 4.89466 14.7545 4.88366 14.7773 4.86673C14.8001 4.84979 14.8184 4.82746 14.8305 4.80173C14.8425 4.776 14.848 4.74767 14.8464 4.7193C14.8448 4.69092 14.8362 4.66338 14.8214 4.63915Z"
      fill="#ae1010" />
  </g>
</svg>
